<?xml version="1.0" encoding="iso-8859-1"?>
<!-- Uploaded to: SVG Repo, www.svgrepo.com, Generator: SVG Repo Mixer Tools -->
<!DOCTYPE svg PUBLIC "-//W3C//DTD SVG 1.1//EN" "http://www.w3.org/Graphics/SVG/1.1/DTD/svg11.dtd">
<svg fill="#000000" height="800px" width="800px" version="1.1" id="Capa_1" xmlns="http://www.w3.org/2000/svg" xmlns:xlink="http://www.w3.org/1999/xlink" 
	 viewBox="0 0 487.515 487.515" xml:space="preserve">
<path id="XMLID_526_" d="M481.923,141.675L372.026,31.756c-5.043-5.039-11.9-7.871-19.02-7.871c-7.121,0-13.978,2.832-19.015,7.871
	v0.019L203.504,162.258c-32.152,32.152-68.767,58.698-109.229,79.457c-18.286,9.376-37.895,23.737-56.291,42.123
	c-46.553,46.55-44.813,78.437-24.076,99.176c20.731,20.742,52.626,22.465,99.179-24.088c18.427-18.434,32.809-38.11,42.202-56.438
	c12.93-25.266,28.427-48.775,45.868-70.854l57.583,57.596c23.249,23.237,33.078,56.861,26.001,88.95
	c-4.976,22.477-9.609,45.306-9.609,52.092c0,18.424,14.934,33.357,33.354,33.357c18.427,0,33.36-14.934,33.36-33.357
	c0-8.53-3.21-33.482-8.487-57.822c-4.743-21.938,5.294-44.449,24.799-55.577c-4.449,15.927-7.341,36.651-7.341,42.638
	c0,10.113,8.186,18.307,18.297,18.307c10.111,0,18.31-8.193,18.31-18.307c0-4.477-1.624-17.211-4.29-30.005
	c-3.095-14.889,2.286-30.321,13.996-40.028c8.235-6.832,16.533-14.361,24.701-22.538
	C473.02,215.754,499.927,159.675,481.923,141.675z M311.293,449.784c-13.26,0-24.045-10.785-24.045-24.043
	c0-4.431,3.585-8.016,8.016-8.016c4.431,0,8.015,3.585,8.015,8.016c0,4.421,3.597,8.016,8.015,8.016c4.412,0,8.01,3.584,8.01,8.015
	C319.303,446.199,315.705,449.784,311.293,449.784z M370.771,104.35c-9.168,9.188-24.089,9.195-33.275,0
	c-9.204-9.188-9.204-24.098,0-33.296c9.185-9.189,24.107-9.189,33.292,0C379.974,80.252,379.974,95.162,370.771,104.35z"/>
</svg>