<?xml version="1.0" encoding="iso-8859-1"?>
<!-- Uploaded to: SVG Repo, www.svgrepo.com, Generator: SVG Repo Mixer Tools -->
<!DOCTYPE svg PUBLIC "-//W3C//DTD SVG 1.1//EN" "http://www.w3.org/Graphics/SVG/1.1/DTD/svg11.dtd">
<svg fill="#000000" height="800px" width="800px" version="1.1" id="Capa_1" xmlns="http://www.w3.org/2000/svg" xmlns:xlink="http://www.w3.org/1999/xlink" 
	 viewBox="0 0 460.561 460.561" xml:space="preserve">
<g id="XMLID_628_">
	<path id="XMLID_636_" d="M312.799,105.004c-9.051-7.78-18.886-14.437-29.478-19.505c1.916,12.23,2.525,23.923,2.129,34.287
		C294.12,113.547,303.293,108.605,312.799,105.004z"/>
	<path id="XMLID_635_" d="M176.784,120.555c0.59-4.32,1.921-19.754-4.484-32.389c-8.717,4.645-16.92,10.296-24.518,16.837
		c10.105,3.83,19.818,9.176,28.973,15.974C176.784,120.842,176.772,120.7,176.784,120.555z"/>
	<path id="XMLID_634_" d="M168.309,44.709c39.389,16.029,40.682,58.187,39.689,74.208c7.326-1.588,14.773-2.448,22.279-2.448
		c8.19,0,16.287,0.997,24.246,2.88c1.758-36.304-10.467-93.917-68.723-117.62c-11.914-4.865-25.406,0.9-30.242,12.744
		C150.738,26.34,156.433,39.883,168.309,44.709z"/>
	<path id="XMLID_629_" d="M350.606,128.894c-26.477,0-50.655,14.087-69.353,37.315c-15.17-11.988-32.531-18.801-50.975-18.801
		c-18.449,0-35.805,6.813-50.958,18.795c-18.7-23.228-42.888-37.31-69.372-37.31c-59.203,0-107.212,70.106-107.212,156.574
		c0,86.475,48.009,156.579,107.212,156.579c18.445,0,35.804-6.814,50.957-18.801c18.706,23.227,42.905,37.315,69.373,37.315
		c26.471,0,50.672-14.088,69.373-37.315c15.17,11.987,32.515,18.801,50.955,18.801c59.207,0,107.219-70.104,107.219-156.579
		C457.825,199.001,409.813,128.894,350.606,128.894z M277.808,265.722l28.01-48.674c1.433-2.492,4.095-4.036,6.98-4.036
		c2.886,0,5.542,1.544,6.978,4.036l28.01,48.674c1.432,2.493,1.432,5.559,0,8.045c-1.449,2.493-4.109,4.025-6.979,4.025h-56.019
		c-2.876,0-5.53-1.532-6.98-4.025C276.372,271.281,276.372,268.215,277.808,265.722z M99.906,265.722l28.009-48.674
		c1.43-2.492,4.092-4.036,6.979-4.036s5.541,1.544,6.979,4.036l28.009,48.674c1.432,2.493,1.432,5.559,0,8.045
		c-1.448,2.493-4.11,4.025-6.978,4.025h-56.02c-2.873,0-5.53-1.532-6.978-4.025C98.468,271.281,98.468,268.215,99.906,265.722z
		 M230.278,401.984c-68.073,0-124.163-32.427-131.613-74.164c-0.422-2.348,0.229-4.757,1.755-6.585
		c1.538-1.828,3.79-2.887,6.174-2.887h54.073v28.773c0,4.448,3.609,8.053,8.05,8.053h32.239c4.439,0,8.054-3.605,8.054-8.053
		v-28.773h144.956c2.384,0,4.649,1.05,6.177,2.877c1.542,1.837,2.175,4.247,1.755,6.595
		C354.446,369.557,298.356,401.984,230.278,401.984z"/>
</g>
</svg>