<?xml version="1.0" encoding="iso-8859-1"?>
<!-- Uploaded to: SVG Repo, www.svgrepo.com, Generator: SVG Repo Mixer Tools -->
<!DOCTYPE svg PUBLIC "-//W3C//DTD SVG 1.1//EN" "http://www.w3.org/Graphics/SVG/1.1/DTD/svg11.dtd">
<svg fill="#000000" height="800px" width="800px" version="1.1" id="Capa_1" xmlns="http://www.w3.org/2000/svg" xmlns:xlink="http://www.w3.org/1999/xlink" 
	 viewBox="0 0 494.512 494.512" xml:space="preserve">
<g id="XMLID_398_">
	<path id="XMLID_401_" d="M247.275,123.362c34.056,0,61.66-27.647,61.66-61.691C308.934,27.632,281.33,0,247.275,0
		c-34.093,0-61.672,27.632-61.672,61.671C185.603,95.715,213.181,123.362,247.275,123.362z"/>
	<path id="XMLID_400_" d="M413.395,223.033l-68.668-51.898l-52.465,47.932c-4.778,4.353-10.767,6.508-16.755,6.508
		c-6.749,0-13.466-2.724-18.371-8.096c-9.265-10.134-8.568-25.869,1.583-35.128l45.208-41.309c-0.97-0.502-1.908-1.182-2.909-1.571
		c-3.726-2.492-8.206-3.966-13.035-3.966h-81.457c-6.417,0-11.75,1.643-19.359,7.368c-3.267,2.458-13.049,9.857-13.049,9.857
		l-37.002-54.163c3.967-8.029,3.708-17.839-1.698-25.758c-7.947-11.637-23.846-14.633-35.5-6.669
		c-11.653,7.967-14.651,23.863-6.686,35.5c5.405,7.916,14.437,11.719,23.358,10.947l37.687,55.149l-73.155,55.297
		c-11.572,8.739-13.854,25.218-5.114,36.775c5.165,6.833,13.016,10.426,20.963,10.426c5.519,0,11.089-1.733,15.817-5.311
		l70.284-53.127v101.077l-14.131,152.974c-1.325,14.439,9.289,27.227,23.744,28.554c0.812,0.081,1.622,0.112,2.434,0.112
		c13.416,0,24.861-10.212,26.122-23.842l13.162-142.47h25.69l13.175,142.47c1.268,13.63,12.693,23.842,26.115,23.842
		c0.804,0,1.634-0.031,2.439-0.112c14.443-1.327,25.064-14.114,23.732-28.554l-14.112-152.894v-11.686l40.564,13.306
		c1.749,8.771,7.915,16.416,17.028,19.394c13.371,4.384,27.813-2.915,32.218-16.319c4.397-13.419-2.915-27.857-16.287-32.246
		c-9.1-2.977-18.618-0.5-25.202,5.537l-48.32-15.847v-63.295l70.284,53.127c4.728,3.578,10.298,5.311,15.798,5.311
		c7.966,0,15.799-3.593,20.982-10.426C427.247,248.251,424.947,231.772,413.395,223.033z"/>
	<path id="XMLID_399_" d="M267.103,191.529c-5.063,4.631-5.424,12.499-0.792,17.565c2.459,2.688,5.811,4.047,9.176,4.047
		c2.997,0,6.007-1.067,8.384-3.256l66.21-60.492c8.498,2.801,18.181,1.166,25.252-5.292c10.413-9.518,11.122-25.673,1.604-36.099
		c-9.519-10.409-25.671-11.138-36.083-1.635c-7.072,6.477-9.569,15.959-7.561,24.671L267.103,191.529z"/>
</g>
</svg>